<?xml version="1.0" encoding="UTF-8" standalone="no"?>
<!-- Created with Inkscape (http://www.inkscape.org/) -->

<svg
   version="1.1"
   id="svg2"
   xml:space="preserve"
   width="3801.3257"
   height="2905.6133"
   viewBox="0 0 3801.3257 2905.6133"
   sodipodi:docname="faces.svg"
   inkscape:version="1.1.2 (0a00cf5339, 2022-02-04)"
   xmlns:inkscape="http://www.inkscape.org/namespaces/inkscape"
   xmlns:sodipodi="http://sodipodi.sourceforge.net/DTD/sodipodi-0.dtd"
   xmlns="http://www.w3.org/2000/svg"
   xmlns:svg="http://www.w3.org/2000/svg"><defs
     id="defs6" /><sodipodi:namedview
     id="namedview4"
     pagecolor="#ffffff"
     bordercolor="#666666"
     borderopacity="1.0"
     inkscape:pageshadow="2"
     inkscape:pageopacity="0"
     inkscape:pagecheckerboard="true"
     showgrid="false"
     lock-margins="true"
     fit-margin-top="10"
     fit-margin-left="10"
     fit-margin-right="10"
     fit-margin-bottom="10"
     inkscape:zoom="0.23332652"
     inkscape:cx="2241.494"
     inkscape:cy="1414.327"
     inkscape:window-width="2560"
     inkscape:window-height="1387"
     inkscape:window-x="2560"
     inkscape:window-y="24"
     inkscape:window-maximized="1"
     inkscape:current-layer="g8" /><g
     id="g8"
     inkscape:groupmode="layer"
     inkscape:label="ink_ext_XXXXXX"
     transform="matrix(1.3333333,0,0,-1.3333333,-591.45065,5031.4932)"><path
       id="path14"
       style="fill:#ffffff;fill-opacity:1;fill-rule:nonzero;stroke:none;stroke-width:0.133333"
       d="m 1719.4453,1036.4551 c -6.2355,2.3126 -12.6732,4.2016 -19.2539,5.7187 l 56.3418,222.6758 c 6.3344,-1.9838 12.8517,-3.5473 19.5039,-4.7246 z"
       transform="matrix(0.75000002,0,0,-0.75000002,0,3968.5001)" /><path
       id="path16"
       style="fill:#ffffff;fill-opacity:1;fill-rule:nonzero;stroke:none;stroke-width:0.133333"
       d="m 3985.8262,2299.6973 -202.5157,272.3906 c 4.7935,4.8513 9.3851,9.9022 13.7579,15.1426 l 205.33,-276.1817 c -5.7763,-3.4323 -11.303,-7.2322 -16.5722,-11.3515 z"
       transform="matrix(0.75000002,0,0,-0.75000002,0,3968.5001)" /><path
       id="path18"
       style="fill:#ffffff;fill-opacity:1;fill-rule:nonzero;stroke:none;stroke-width:0.133333"
       d="m 4098.4102,1312.9902 -317.8204,460.459 c 4.7792,4.9666 9.3642,10.1153 13.709,15.4746 l 318.9668,-462.1211 c -5.2516,-4.274 -10.1966,-8.9062 -14.8554,-13.8125 z"
       transform="matrix(0.75000002,0,0,-0.75000002,0,3968.5001)" /><path
       id="path20"
       style="fill:#ffffff;fill-opacity:1;fill-rule:nonzero;stroke:none;stroke-width:0.133333"
       d="m 4178.6055,1358.3555 -81.1797,660.4433 c 6.7473,0.6247 13.3625,1.6897 19.8359,3.1387 l 81.1973,-660.502 c -6.7523,-0.6011 -13.3718,-1.6527 -19.8535,-3.08 z"
       transform="matrix(0.75000002,0,0,-0.75000002,0,3968.5001)" /><path
       id="path22"
       style="fill:#ffffff;fill-opacity:1;fill-rule:nonzero;stroke:none;stroke-width:0.133333"
       d="m 1954.4453,1460.7324 c -1.9475,6.4523 -4.3284,12.7123 -7.0527,18.7871 l 266.3515,103.9942 c 1.9524,-6.4294 4.0671,-12.7865 6.3829,-19.0489 z"
       transform="matrix(0.75000002,0,0,-0.75000002,0,3968.5001)" /><path
       id="path24"
       style="fill:#ffffff;fill-opacity:1;fill-rule:nonzero;stroke:none;stroke-width:0.133333"
       d="m 2309.8438,582.20117 -511.0079,224.01172 c 3.5106,5.69431 6.6345,11.64731 9.4102,17.79297 l 507.2285,-222.36719 c -2.1347,-6.36852 -4.0234,-12.84515 -5.6308,-19.4375 z"
       transform="matrix(0.75000002,0,0,-0.75000002,0,3968.5001)" /><path
       id="path26"
       style="fill:#ffffff;fill-opacity:1;fill-rule:nonzero;stroke:none;stroke-width:0.133333"
       d="m 2281.0723,1154.209 c -5.798,3.3073 -11.8179,6.2664 -18.0469,8.8281 l 100.0215,228.1621 c 5.7363,-3.4902 11.6163,-6.7633 17.5683,-9.918 z"
       transform="matrix(0.75000002,0,0,-0.75000002,0,3968.5001)" /><path
       d="m 1352.75,3015.75 h -0.63 c -59.89,-0.34 -108.34,-49.35 -108,-109.24 0.34,-59.55 49.06,-108 108.61,-108 h 0.63 c 59.89,0.34 108.34,49.34 108,109.24 -0.34,59.55 -49.06,108 -108.61,108 z m -0.02,-236.24 c -33.94,0 -65.88,13.18 -89.96,37.11 -24.08,23.94 -37.45,55.83 -37.65,89.78 -0.4,70.37 56.53,127.95 126.9,128.35 h 0.73 c 33.93,0 65.88,-13.18 89.96,-37.11 24.09,-23.94 37.46,-55.83 37.65,-89.79 0.4,-70.37 -56.53,-127.94 -126.9,-128.34 h -0.73"
       style="fill:#ffffff;fill-opacity:1;fill-rule:nonzero;stroke:none;stroke-width:0.1"
       id="path30" /><path
       id="path32"
       style="fill:#ffffff;fill-opacity:1;fill-rule:nonzero;stroke:none;stroke-width:0.133333"
       d="m 3276.6816,1835.5391 c -1.7327,6.5259 -3.8574,12.891 -6.3789,19.0566 l 98.5,38.459 c 1.3453,-6.6562 3.0135,-13.1907 4.8926,-19.6367 z m 546.3809,213.3379 c -3.0104,6.0573 -6.2271,11.9955 -9.7168,17.7519 l 123.959,48.4004 c 2.599,-6.2346 5.6098,-12.2504 8.957,-18.0488 z"
       transform="matrix(0.75000002,0,0,-0.75000002,0,3968.5001)" /><path
       d="m 2343.38,2730.85 h -0.63 c -59.89,-0.34 -108.34,-49.34 -108,-109.24 0.34,-59.55 49.05,-108 108.6,-108 h 0.63 c 29.02,0.17 56.23,11.62 76.63,32.25 20.4,20.63 31.54,47.97 31.37,76.99 -0.33,59.55 -49.05,108 -108.6,108 z m -0.03,-236.24 c -33.93,0 -65.88,13.18 -89.95,37.11 -24.09,23.94 -37.46,55.83 -37.65,89.79 -0.4,70.36 56.52,127.94 126.89,128.34 h 0.74 c 33.93,0 65.88,-13.18 89.96,-37.11 24.08,-23.94 37.45,-55.83 37.64,-89.78 0.2,-34.09 -12.89,-66.22 -36.86,-90.46 -23.97,-24.24 -55.94,-37.69 -90.03,-37.89 h -0.74"
       style="fill:#ffffff;fill-opacity:1;fill-rule:nonzero;stroke:none;stroke-width:0.1"
       id="path36" /><path
       id="path38"
       style="fill:#ffffff;fill-opacity:1;fill-rule:nonzero;stroke:none;stroke-width:0.133333"
       d="m 2423.2383,2003.1641 -104.1133,266.6386 c 6.2353,2.5956 12.2509,5.6052 18.0508,8.9493 l 105.1601,-269.3262 c -6.4399,-1.9233 -12.8237,-3.9743 -19.0976,-6.2617 z"
       transform="matrix(0.75000002,0,0,-0.75000002,0,3968.5001)" /><path
       d="m 1693.99,2265.68 h -0.18 c -59.89,-0.09 -108.54,-48.9 -108.45,-108.79 0.1,-59.79 48.82,-108.44 108.62,-108.45 h 0.18 c 29.01,0.05 56.27,11.39 76.75,31.94 20.48,20.55 31.74,47.84 31.69,76.86 -0.09,59.79 -48.82,108.44 -108.61,108.44 z m -0.01,-236.24 c -70.26,0.01 -127.51,57.17 -127.62,127.42 -0.11,70.37 57.05,127.71 127.42,127.82 h 0.21 c 70.25,0 127.5,-57.16 127.61,-127.41 0.06,-34.09 -13.17,-66.16 -37.23,-90.31 -24.07,-24.14 -56.1,-37.46 -90.18,-37.52 h -0.21"
       style="fill:#ffffff;fill-opacity:1;fill-rule:nonzero;stroke:none;stroke-width:0.1"
       id="path42" /><path
       d="m 1652.38,3314.11 h -0.11 c -29.01,-0.03 -56.27,-11.35 -76.77,-31.89 -20.5,-20.53 -31.77,-47.82 -31.74,-76.84 0.06,-59.83 48.79,-108.51 108.62,-108.51 h 0.11 c 59.89,0.06 108.57,48.83 108.51,108.73 -0.06,59.83 -48.78,108.51 -108.62,108.51 z m 0,-236.24 c -70.3,0 -127.55,57.2 -127.62,127.5 -0.03,34.08 13.21,66.14 37.29,90.27 24.08,24.13 56.12,37.44 90.21,37.47 h 0.12 c 70.3,0 127.55,-57.19 127.62,-127.49 0.07,-70.38 -57.12,-127.68 -127.49,-127.75 h -0.13"
       style="fill:#ffffff;fill-opacity:1;fill-rule:nonzero;stroke:none;stroke-width:0.1"
       id="path46" /><path
       id="path48"
       style="fill:#ffffff;fill-opacity:1;fill-rule:nonzero;stroke:none;stroke-width:0.133333"
       d="m 1216.7461,1912.4082 -102.834,273.6426 c 6.1844,2.7794 12.1664,5.9219 17.8965,9.4453 l 103.3008,-274.8809 c -6.2527,-2.491 -12.3798,-5.2225 -18.3633,-8.207 z"
       transform="matrix(0.75000002,0,0,-0.75000002,0,3968.5001)" /><path
       id="path50"
       style="fill:#ffffff;fill-opacity:1;fill-rule:nonzero;stroke:none;stroke-width:0.133333"
       d="m 1511.377,2230.0684 -307.0118,71.4296 c 1.1883,6.5608 2.0149,13.2475 2.3633,20.0645 l 306.1426,-71.2324 c -0.7768,-6.6753 -1.2715,-13.4321 -1.4941,-20.2617 z"
       transform="matrix(0.75000002,0,0,-0.75000002,0,3968.5001)" /><path
       d="m 787.085,2329.82 h -0.108 c -29.014,-0.03 -56.279,-11.35 -76.774,-31.89 -20.496,-20.54 -31.768,-47.82 -31.738,-76.84 0.057,-59.83 48.782,-108.51 108.616,-108.51 h 0.109 c 59.894,0.06 108.573,48.83 108.514,108.73 -0.059,59.83 -48.785,108.51 -108.619,108.51 z m -0.004,-236.24 c -70.3,0 -127.548,57.19 -127.616,127.49 -0.034,34.09 13.208,66.15 37.289,90.28 24.08,24.13 56.116,37.44 90.204,37.47 h 0.127 c 70.3,0 127.55,-57.19 127.619,-127.49 0.069,-70.37 -57.124,-127.68 -127.495,-127.75 h -0.128"
       style="fill:#ffffff;fill-opacity:1;fill-rule:nonzero;stroke:none;stroke-width:0.1"
       id="path54" /><path
       d="m 1248.53,3410.56 h -0.55 c -59.89,-0.29 -108.38,-49.26 -108.09,-109.15 0.29,-59.6 49.01,-108.09 108.61,-108.09 h 0.54 c 59.9,0.3 108.38,49.26 108.09,109.15 -0.29,59.6 -49.01,108.09 -108.6,108.09 z m -0.03,-236.24 c -33.96,0 -65.92,13.2 -90,37.15 -24.08,23.96 -37.44,55.87 -37.61,89.85 -0.34,70.37 56.63,127.9 127,128.24 h 0.64 c 33.95,0 65.91,-13.19 89.99,-37.15 24.09,-23.96 37.45,-55.87 37.61,-89.84 0.35,-70.37 -56.63,-127.9 -126.99,-128.25 h -0.64"
       style="fill:#ffffff;fill-opacity:1;fill-rule:nonzero;stroke:none;stroke-width:0.1"
       id="path58" /><path
       id="path60"
       style="fill:#ffffff;fill-opacity:1;fill-rule:nonzero;stroke:none;stroke-width:0.133333"
       d="m 3627.0078,954.42969 c -3.9776,5.71792 -8.1659,11.27901 -12.6094,16.62304 l 451.4942,176.28907 c 2.4532,-6.2815 5.2811,-12.3719 8.4883,-18.2324 z"
       transform="matrix(0.75000002,0,0,-0.75000002,0,3968.5001)" /><path
       id="path62"
       style="fill:#ffffff;fill-opacity:1;fill-rule:nonzero;stroke:none;stroke-width:0.133333"
       d="m 3346.5625,1422.0879 -469.9414,206.0195 c 1.1016,6.8426 2.0307,13.7425 2.7187,20.7149 l 476.4786,-208.8711 c -3.4604,-5.7211 -6.5334,-11.6976 -9.2559,-17.8633 z"
       transform="matrix(0.75000002,0,0,-0.75000002,0,3968.5001)" /><path
       id="path64"
       style="fill:#ffffff;fill-opacity:1;fill-rule:nonzero;stroke:none;stroke-width:0.133333"
       d="m 1778.5645,2462.8867 c -6.6003,0.6838 -13.2942,1.0389 -20.0411,1.1817 l 12.5098,194.7304 c 3.9918,-0.1956 8.0066,-0.3047 12.0469,-0.3047 2.7053,0 5.3825,0.1151 8.0664,0.2032 z"
       transform="matrix(0.75000002,0,0,-0.75000002,0,3968.5001)" /><path
       id="path66"
       style="fill:#ffffff;fill-opacity:1;fill-rule:nonzero;stroke:none;stroke-width:0.133333"
       d="m 2536.8984,2622.9316 -528.9785,189.8282 6.7871,18.8945 529.9473,-190.1758 c -2.8165,-6.0594 -5.4386,-12.228 -7.7559,-18.5469 z"
       transform="matrix(0.75000002,0,0,-0.75000002,0,3968.5001)" /><path
       d="m 3159.47,3173.68 h -0.67 c -29.02,-0.18 -56.22,-11.64 -76.61,-32.28 -20.39,-20.64 -31.53,-47.99 -31.35,-77 0.18,-28.9 11.56,-56.03 32.06,-76.39 20.49,-20.36 47.67,-31.57 76.55,-31.57 h 0.67 c 29.02,0.18 56.22,11.64 76.61,32.28 20.39,20.64 31.52,47.99 31.35,77 -0.18,28.89 -11.56,56.02 -32.06,76.39 -20.49,20.36 -47.68,31.57 -76.55,31.57 z m -0.03,-236.24 c -33.92,0 -65.86,13.17 -89.93,37.09 -24.08,23.93 -37.46,55.8 -37.67,89.75 -0.21,34.09 12.87,66.22 36.83,90.47 23.96,24.25 55.92,37.72 90.01,37.93 h 0.79 c 33.93,0 65.87,-13.17 89.94,-37.09 24.08,-23.93 37.46,-55.81 37.67,-89.76 0.2,-34.08 -12.88,-66.21 -36.83,-90.46 -23.96,-24.25 -55.92,-37.72 -90.01,-37.93 h -0.8"
       style="fill:#ffffff;fill-opacity:1;fill-rule:nonzero;stroke:none;stroke-width:0.1"
       id="path70" /><path
       id="path72"
       style="fill:#ffffff;fill-opacity:1;fill-rule:nonzero;stroke:none;stroke-width:0.133333"
       d="m 2766.0156,1155.7285 -84.6113,216.6953 c 6.1215,2.7937 12.1611,5.7304 18.082,8.8692 l 85.1055,-217.9668 c -6.3814,-2.1548 -12.5907,-4.677 -18.5762,-7.5977 z"
       transform="matrix(0.75000002,0,0,-0.75000002,0,3968.5001)" /><path
       d="m 2126.26,3316.54 c -59.91,0 -108.63,-48.72 -108.64,-108.6 -0.01,-29.01 11.28,-56.29 31.79,-76.81 20.51,-20.52 47.79,-31.83 76.8,-31.84 l 0.03,-9.5 v 9.5 c 59.88,0 108.6,48.72 108.62,108.6 0,29.01 -11.29,56.29 -31.8,76.81 -20.51,20.53 -47.79,31.83 -76.8,31.84 z m -0.02,-236.25 v 0 h -0.03 c -34.09,0.01 -66.14,13.29 -90.24,37.4 -24.09,24.11 -37.36,56.17 -37.35,90.25 0.01,70.36 57.26,127.6 127.62,127.6 34.11,-0.01 66.16,-13.29 90.26,-37.4 24.1,-24.11 37.36,-56.17 37.36,-90.25 -0.02,-70.36 -57.27,-127.6 -127.62,-127.6"
       style="fill:#ffffff;fill-opacity:1;fill-rule:nonzero;stroke:none;stroke-width:0.1"
       id="path76" /><path
       d="m 2617.99,3058.2 c -59.65,0 -108.37,-48.53 -108.61,-108.18 -0.24,-59.89 48.29,-108.82 108.18,-109.06 h 0.45 c 59.65,0 108.37,48.53 108.61,108.18 0.24,59.9 -48.29,108.82 -108.18,109.06 z m 0.03,-236.24 c -0.01,0 -0.01,0 -0.01,0 h -0.52 c -70.37,0.29 -127.39,57.77 -127.11,128.14 0.14,33.99 13.48,65.93 37.57,89.91 24.08,23.98 56.06,37.19 90.04,37.19 h 0.52 c 70.37,-0.28 127.39,-57.76 127.11,-128.13 -0.14,-34 -13.48,-65.94 -37.57,-89.92 -24.08,-23.98 -56.06,-37.19 -90.03,-37.19"
       style="fill:#ffffff;fill-opacity:1;fill-rule:nonzero;stroke:none;stroke-width:0.1"
       id="path80" /><path
       d="m 2460.3,3399.52 c 1.14,0 1.46,1.5 0.15,1.5 -1.13,0 -1.45,-1.5 -0.15,-1.5 v 0"
       style="fill:#ffffff;fill-opacity:1;fill-rule:nonzero;stroke:none;stroke-width:0.1"
       id="path82" /><path
       id="path84"
       style="fill:#ffffff;fill-opacity:1;fill-rule:nonzero;stroke:none;stroke-width:0.133333"
       d="m 1037.8594,1390.1465 c -6.8131,7.7222 -14.1088,14.9999 -21.8438,21.7988 l 125.4434,125.4453 c 6.7359,-7.7908 13.9304,-15.1698 21.5957,-22.0449 z m 467.084,467.0957 c -6.8744,7.6641 -14.2513,14.8587 -22.0411,21.5937 l 139.5352,139.5352 c 8.9718,-5.777 18.3323,-10.9947 28.0645,-15.5664 z"
       transform="matrix(0.75000002,0,0,-0.75000002,0,3968.5001)" /><path
       id="path86"
       style="fill:#ffffff;fill-opacity:1;fill-rule:nonzero;stroke:none;stroke-width:0.133333"
       d="m 1565.248,1668.5078 c 0.9943,8.912 1.5528,17.9555 1.5528,27.1328 0,1.2525 -0.077,2.4865 -0.096,3.7344 l 632.7578,0.01 c -0.2662,-5.5266 -0.4238,-11.0831 -0.4238,-16.6758 0,-4.7596 0.1662,-9.4792 0.3593,-14.1914 z"
       transform="matrix(0.75000002,0,0,-0.75000002,0,3968.5001)" /><path
       id="path88"
       style="fill:#ffffff;fill-opacity:1;fill-rule:nonzero;stroke:none;stroke-width:0.133333"
       d="m 2564.6758,765.94141 c -6.4794,0.52017 -13.0098,0.85937 -19.6231,0.85937 -3.7714,0 -7.5148,-0.1146 -11.2441,-0.28516 v 575.36328 c 2.082,-0.037 4.1434,-0.1582 6.2344,-0.1582 8.2922,0 16.4868,0.4004 24.6308,0.9824 z"
       transform="matrix(0.75000002,0,0,-0.75000002,0,3968.5001)" /><path
       d="m 642.197,3218.07 c -94.902,0 -172.109,-77.21 -172.109,-172.11 0,-94.9 77.208,-172.11 172.11,-172.11 94.901,0 172.109,77.2 172.109,172.11 0,94.9 -77.208,172.11 -172.11,172.11 z m 10e-4,-363.22 c -105.379,0 -191.11,85.73 -191.11,191.11 0,105.38 85.731,191.11 191.109,191.11 105.378,0 191.11,-85.73 191.11,-191.11 0,-105.38 -85.731,-191.11 -191.109,-191.11"
       style="fill:#ffffff;fill-opacity:1;fill-rule:nonzero;stroke:none;stroke-width:0.1"
       id="path92" /><path
       id="path94"
       style="fill:#ffffff;fill-opacity:1;fill-rule:nonzero;stroke:none;stroke-width:0.133333"
       d="m 2252.834,1866.4316 -297.5938,221.9981 c 5.713,8.6155 10.8903,17.6119 15.4825,26.9531 l 299.9257,-223.7344 c -6.3083,-8.1214 -12.248,-16.5335 -17.8144,-25.2168 z"
       transform="matrix(0.75000002,0,0,-0.75000002,0,3968.5001)" /><path
       d="m 1314.99,2474.07 c -94.91,0 -172.11,-77.21 -172.11,-172.11 0,-94.9 77.2,-172.11 172.11,-172.11 94.9,0 172.11,77.21 172.11,172.11 0,94.9 -77.21,172.11 -172.11,172.11 z m 0,-363.22 c -105.38,0 -191.11,85.73 -191.11,191.11 0,105.38 85.73,191.11 191.11,191.11 105.37,0 191.11,-85.73 191.11,-191.11 0,-105.38 -85.74,-191.11 -191.11,-191.11"
       style="fill:#ffffff;fill-opacity:1;fill-rule:nonzero;stroke:none;stroke-width:0.1"
       id="path98" /><path
       d="m 1908.79,3747.12 c -94.91,0 -172.11,-77.21 -172.11,-172.11 0,-94.9 77.2,-172.11 172.11,-172.11 94.9,0 172.11,77.21 172.11,172.11 0,94.9 -77.21,172.11 -172.11,172.11 z m 0,-363.22 c -105.38,0 -191.11,85.73 -191.11,191.11 0,105.38 85.73,191.11 191.11,191.11 105.37,0 191.11,-85.73 191.11,-191.11 0,-105.38 -85.74,-191.11 -191.11,-191.11"
       style="fill:#ffffff;fill-opacity:1;fill-rule:nonzero;stroke:none;stroke-width:0.1"
       id="path102" /><path
       d="m 993.491,2868.88 c -94.902,0 -172.11,-77.2 -172.11,-172.11 0,-94.9 77.208,-172.11 172.11,-172.11 94.899,0 172.109,77.21 172.109,172.11 0,94.9 -77.21,172.11 -172.109,172.11 z m 0,-363.22 c -105.379,0 -191.11,85.74 -191.11,191.11 0,105.38 85.731,191.11 191.11,191.11 105.379,0 191.109,-85.73 191.109,-191.11 0,-105.38 -85.73,-191.11 -191.109,-191.11"
       style="fill:#ffffff;fill-opacity:1;fill-rule:nonzero;stroke:none;stroke-width:0.1"
       id="path106" /><path
       id="path108"
       style="fill:#ffffff;fill-opacity:1;fill-rule:nonzero;stroke:none;stroke-width:0.133333"
       d="m 2800.9707,1902.1445 c -6.6378,7.8852 -13.6027,15.4854 -20.918,22.7364 l 653.1348,653.1425 c 6.9881,-7.5656 14.4523,-14.68 22.3457,-21.3046 z"
       transform="matrix(0.75000002,0,0,-0.75000002,0,3968.5001)" /><path
       id="path110"
       style="fill:#ffffff;fill-opacity:1;fill-rule:nonzero;stroke:none;stroke-width:0.133333"
       d="m 3625.7715,2182.5645 c -6.4845,0.521 -13.0201,0.8613 -19.6387,0.8613 -3.7658,0 -7.5047,-0.1131 -11.2285,-0.2832 l -0.01,317.5625 c 5.3542,-0.3537 10.738,-0.5977 16.1817,-0.5977 4.9352,0 9.8234,0.1933 14.6855,0.4844 z"
       transform="matrix(0.75000002,0,0,-0.75000002,0,3968.5001)" /><path
       id="path112"
       style="fill:#ffffff;fill-opacity:1;fill-rule:nonzero;stroke:none;stroke-width:0.133333"
       d="m 2646.4707,2006.6738 c -9.7246,3.1935 -19.6419,5.9434 -29.7305,8.2637 l 79.5059,292.2422 c 9.8063,-2.8677 19.8521,-5.1717 30.1309,-6.7891 z"
       transform="matrix(0.75000002,0,0,-0.75000002,0,3968.5001)" /><path
       id="path114"
       style="fill:#ffffff;fill-opacity:1;fill-rule:nonzero;stroke:none;stroke-width:0.133333"
       d="m 3003.0898,2579.6543 c -1.7084,10.2476 -4.0414,20.2816 -6.9941,30.0508 l 376.5352,90.5957 c 1.7878,-10.2293 4.1469,-20.263 7.1757,-30.0078 z"
       transform="matrix(0.75000002,0,0,-0.75000002,0,3968.5001)" /><path
       d="m 2708.31,2083.92 c -94.9,0 -172.11,-77.21 -172.11,-172.11 0,-94.91 77.21,-172.11 172.11,-172.11 94.9,0 172.11,77.2 172.11,172.11 0,94.9 -77.21,172.11 -172.11,172.11 z m 0,-363.22 c -105.38,0 -191.11,85.73 -191.11,191.11 0,105.37 85.73,191.11 191.11,191.11 105.38,0 191.11,-85.74 191.11,-191.11 0,-105.38 -85.73,-191.11 -191.11,-191.11"
       style="fill:#ffffff;fill-opacity:1;fill-rule:nonzero;stroke:none;stroke-width:0.1"
       id="path122" /><path
       id="path124"
       style="fill:#ffffff;fill-opacity:1;fill-rule:nonzero;stroke:none;stroke-width:0.133333"
       d="m 3246.4531,976.34375 -465.2793,465.27345 c 7.2808,7.2821 14.2075,14.9165 20.8086,22.8301 l 466.3008,-466.293 c -7.7311,-6.80279 -15.0212,-14.08495 -21.8301,-21.81055 z"
       transform="matrix(0.75000002,0,0,-0.75000002,0,3968.5001)" /><path
       d="m 2571.1,3528.35 c -94.9,0 -172.11,-77.21 -172.11,-172.11 0,-94.9 77.21,-172.11 172.11,-172.11 94.9,0 172.11,77.21 172.11,172.11 0,94.9 -77.21,172.11 -172.11,172.11 z m 0,-363.22 c -105.38,0 -191.11,85.73 -191.11,191.11 0,105.38 85.73,191.11 191.11,191.11 105.38,0 191.11,-85.73 191.11,-191.11 0,-105.38 -85.73,-191.11 -191.11,-191.11"
       style="fill:#ffffff;fill-opacity:1;fill-rule:nonzero;stroke:none;stroke-width:0.1"
       id="path128" /><path
       d="m 1905.03,2952.71 c -65.78,0 -127.61,-25.61 -174.12,-72.12 -46.51,-46.51 -72.13,-108.35 -72.13,-174.12 0,-65.78 25.62,-127.62 72.13,-174.12 46.51,-46.51 108.34,-72.13 174.12,-72.13 65.77,0 127.61,25.62 174.12,72.13 46.51,46.5 72.12,108.34 72.12,174.12 0,65.77 -25.61,127.61 -72.12,174.12 -46.51,46.51 -108.35,72.12 -174.12,72.12 z m 0,-511.49 c -70.85,0 -137.46,27.59 -187.56,77.69 -50.1,50.1 -77.69,116.71 -77.69,187.56 0,70.85 27.59,137.45 77.69,187.55 50.1,50.1 116.71,77.69 187.56,77.69 70.85,0 137.46,-27.59 187.56,-77.69 50.09,-50.1 77.68,-116.7 77.68,-187.55 0,-70.85 -27.59,-137.46 -77.68,-187.56 -50.1,-50.1 -116.71,-77.69 -187.56,-77.69"
       style="fill:#ffffff;fill-opacity:1;fill-rule:nonzero;stroke:none;stroke-width:0.1"
       id="path132" /><path
       d="m 2073.23,2235.94 c -94.9,0 -172.11,-77.2 -172.11,-172.11 0,-94.9 77.21,-172.11 172.11,-172.11 94.9,0 172.11,77.21 172.11,172.11 0,94.91 -77.21,172.11 -172.11,172.11 z m 0,-363.22 c -105.38,0 -191.11,85.74 -191.11,191.11 0,105.38 85.73,191.11 191.11,191.11 105.38,0 191.11,-85.73 191.11,-191.11 0,-105.37 -85.73,-191.11 -191.11,-191.11"
       style="fill:#ffffff;fill-opacity:1;fill-rule:nonzero;stroke:none;stroke-width:0.1"
       id="path136" /><path
       d="m 2704.6,2684.65 c -94.9,0 -172.11,-77.21 -172.11,-172.11 0,-94.9 77.21,-172.11 172.11,-172.11 94.9,0 172.11,77.21 172.11,172.11 0,94.9 -77.21,172.11 -172.11,172.11 z m 0,-363.22 c -105.38,0 -191.11,85.73 -191.11,191.11 0,105.38 85.73,191.11 191.11,191.11 105.38,0 191.11,-85.73 191.11,-191.11 0,-105.38 -85.73,-191.11 -191.11,-191.11"
       style="fill:#ffffff;fill-opacity:1;fill-rule:nonzero;stroke:none;stroke-width:0.1"
       id="path140" /><path
       d="m 3062.06,2445.43 c -59.9,0 -108.63,-48.71 -108.64,-108.59 -0.01,-29.02 11.28,-56.29 31.8,-76.82 20.51,-20.52 47.78,-31.82 76.79,-31.83 l 0.03,-9.5 v 9.5 c 59.88,0 108.61,48.72 108.62,108.6 0.01,59.89 -48.7,108.63 -108.6,108.64 z m -0.02,-236.24 v 0 h -0.03 c -34.09,0.01 -66.13,13.29 -90.23,37.4 -24.1,24.11 -37.37,56.16 -37.36,90.25 0.02,70.36 57.27,127.59 127.62,127.59 70.4,-0.01 127.64,-57.28 127.62,-127.65 -0.02,-70.35 -57.27,-127.59 -127.62,-127.59"
       style="fill:#ffffff;fill-opacity:1;fill-rule:nonzero;stroke:none;stroke-width:0.1"
       id="path144" /><path
       d="m 1865.71,2782.71 c 0,27.68 -22.44,50.13 -50.13,50.13 -27.68,0 -50.12,-22.45 -50.12,-50.13 0,-27.68 22.44,-50.12 50.12,-50.12 27.69,0 50.13,22.44 50.13,50.12"
       style="fill:#ffffff;fill-opacity:1;fill-rule:nonzero;stroke:none;stroke-width:0.1"
       id="path146" /><path
       d="m 2044.09,2782.71 c 0,27.68 -22.44,50.13 -50.12,50.13 -27.69,0 -50.13,-22.45 -50.13,-50.13 0,-27.68 22.44,-50.12 50.13,-50.12 27.68,0 50.12,22.44 50.12,50.12"
       style="fill:#ffffff;fill-opacity:1;fill-rule:nonzero;stroke:none;stroke-width:0.1"
       id="path148" /><path
       d="m 1906.45,2530.93 c -69,0 -125.14,56.14 -125.14,125.15 0,11.16 9.05,20.21 20.21,20.21 11.17,0 20.22,-9.05 20.22,-20.21 0,-46.71 38,-84.72 84.71,-84.72 46.71,0 84.71,38.01 84.71,84.72 0,11.16 9.06,20.21 20.22,20.21 11.17,0 20.22,-9.05 20.22,-20.21 0,-69.01 -56.14,-125.15 -125.15,-125.15"
       style="fill:#ffffff;fill-opacity:1;fill-rule:nonzero;stroke:none;stroke-width:0.1"
       id="path150" /><path
       d="m 610.102,3108.98 c 0,20.22 -16.389,36.61 -36.608,36.61 -20.218,0 -36.608,-16.39 -36.608,-36.61 0,-20.22 16.39,-36.61 36.608,-36.61 20.219,0 36.608,16.39 36.608,36.61"
       style="fill:#ffffff;fill-opacity:1;fill-rule:nonzero;stroke:none;stroke-width:0.1"
       id="path152" /><path
       d="m 740.385,3108.98 c 0,20.22 -16.39,36.61 -36.609,36.61 -20.217,0 -36.608,-16.39 -36.608,-36.61 0,-20.22 16.391,-36.61 36.608,-36.61 20.219,0 36.609,16.39 36.609,36.61"
       style="fill:#ffffff;fill-opacity:1;fill-rule:nonzero;stroke:none;stroke-width:0.1"
       id="path154" /><path
       d="m 639.862,3031.26 c 50.4,0 91.402,-41.01 91.402,-91.41 0,-8.15 -6.611,-14.76 -14.766,-14.76 -8.156,0 -14.766,6.61 -14.766,14.76 0,34.12 -27.755,61.87 -61.87,61.87 -34.114,0 -61.869,-27.75 -61.869,-61.87 0,-8.15 -6.611,-14.76 -14.766,-14.76 -8.155,0 -14.766,6.61 -14.766,14.76 0,50.4 41.002,91.41 91.401,91.41"
       style="fill:#ffffff;fill-opacity:1;fill-rule:nonzero;stroke:none;stroke-width:0.1"
       id="path156" /><path
       d="m 2541.75,3415.49 c 0,20.22 -16.39,36.61 -36.61,36.61 -20.22,0 -36.61,-16.39 -36.61,-36.61 0,-20.22 16.39,-36.61 36.61,-36.61 20.22,0 36.61,16.39 36.61,36.61"
       style="fill:#ffffff;fill-opacity:1;fill-rule:nonzero;stroke:none;stroke-width:0.1"
       id="path158" /><path
       d="m 2672.03,3415.49 c 0,20.22 -16.39,36.61 -36.61,36.61 -20.22,0 -36.61,-16.39 -36.61,-36.61 0,-20.22 16.39,-36.61 36.61,-36.61 20.22,0 36.61,16.39 36.61,36.61"
       style="fill:#ffffff;fill-opacity:1;fill-rule:nonzero;stroke:none;stroke-width:0.1"
       id="path160" /><path
       d="m 2571.51,3231.6 c -50.4,0 -91.4,41.01 -91.4,91.4 0,8.16 6.61,14.77 14.76,14.77 h 153.27 c 8.16,0 14.77,-6.61 14.77,-14.77 0,-50.39 -41,-91.4 -91.4,-91.4"
       style="fill:#ffffff;fill-opacity:1;fill-rule:nonzero;stroke:none;stroke-width:0.1"
       id="path162" /><path
       d="m 1879.36,3614.64 c 0,20.22 -16.39,36.6 -36.61,36.6 -20.22,0 -36.61,-16.38 -36.61,-36.6 0,-20.22 16.39,-36.61 36.61,-36.61 20.22,0 36.61,16.39 36.61,36.61"
       style="fill:#ffffff;fill-opacity:1;fill-rule:nonzero;stroke:none;stroke-width:0.1"
       id="path164" /><path
       d="m 2009.64,3614.64 c 0,20.22 -16.39,36.6 -36.61,36.6 -20.22,0 -36.61,-16.38 -36.61,-36.6 0,-20.22 16.39,-36.61 36.61,-36.61 20.22,0 36.61,16.39 36.61,36.61"
       style="fill:#ffffff;fill-opacity:1;fill-rule:nonzero;stroke:none;stroke-width:0.1"
       id="path166" /><path
       d="m 1983.23,3490.31 h -150.68 c -9.79,0 -17.72,7.94 -17.72,17.72 0,9.79 7.93,17.72 17.72,17.72 h 150.68 c 9.79,0 17.72,-7.93 17.72,-17.72 0,-9.78 -7.93,-17.72 -17.72,-17.72"
       style="fill:#ffffff;fill-opacity:1;fill-rule:nonzero;stroke:none;stroke-width:0.1"
       id="path168" /><path
       d="m 1401.17,2936.82 h -28.63 c -2.93,0 -5.57,1.76 -6.68,4.47 -1.12,2.7 -0.51,5.81 1.56,7.88 l 26.95,26.94 c 2.82,2.83 7.4,2.83 10.23,0 2.82,-2.82 2.82,-7.4 0,-10.23 l -14.6,-14.59 h 11.17 c 3.99,0 7.23,-3.24 7.23,-7.24 0,-3.99 -3.24,-7.23 -7.23,-7.23"
       style="fill:#ffffff;fill-opacity:1;fill-rule:nonzero;stroke:none;stroke-width:0.1"
       id="path170" /><path
       d="m 1304.29,2936.82 h 28.63 c 2.93,0 5.56,1.76 6.68,4.47 1.12,2.7 0.5,5.81 -1.57,7.88 l -26.94,26.94 c -2.82,2.83 -7.4,2.83 -10.23,0 -2.82,-2.82 -2.82,-7.4 0,-10.23 l 14.59,-14.59 h -11.16 c -3.99,0 -7.23,-3.24 -7.23,-7.24 0,-3.99 3.24,-7.23 7.23,-7.23"
       style="fill:#ffffff;fill-opacity:1;fill-rule:nonzero;stroke:none;stroke-width:0.1"
       id="path172" /><path
       d="m 1352.74,2901.04 c 30.86,0 55.97,-25.11 55.97,-55.97 0,-4.99 -4.05,-9.04 -9.04,-9.04 -4.99,0 -9.04,4.05 -9.04,9.04 0,20.89 -17,37.89 -37.89,37.89 -20.89,0 -37.89,-17 -37.89,-37.89 0,-4.99 -4.04,-9.04 -9.04,-9.04 -4.99,0 -9.04,4.05 -9.04,9.04 0,30.86 25.11,55.97 55.97,55.97"
       style="fill:#ffffff;fill-opacity:1;fill-rule:nonzero;stroke:none;stroke-width:0.1"
       id="path174" /><path
       d="m 1650.9,3155.79 v 12.57 c 0,0.81 0.67,1.48 1.48,1.48 0.82,0 1.48,-0.67 1.48,-1.48 v -12.57 c 0,-0.81 -0.66,-1.47 -1.48,-1.47 -0.81,0 -1.48,0.66 -1.48,1.47"
       style="fill:#ffffff;fill-opacity:1;fill-rule:nonzero;stroke:none;stroke-width:0.1"
       id="path176" /><path
       d="m 1700.82,3230.42 h -28.63 c -2.92,0 -5.56,1.76 -6.68,4.46 -1.12,2.71 -0.5,5.82 1.57,7.89 l 26.94,26.94 c 2.82,2.83 7.41,2.83 10.23,0 2.82,-2.83 2.82,-7.4 0,-10.23 l -14.59,-14.59 h 11.16 c 3.99,0 7.23,-3.24 7.23,-7.24 0,-3.99 -3.24,-7.23 -7.23,-7.23"
       style="fill:#ffffff;fill-opacity:1;fill-rule:nonzero;stroke:none;stroke-width:0.1"
       id="path178" /><path
       d="m 1603.95,3230.42 h 28.62 c 2.93,0 5.57,1.76 6.69,4.46 1.12,2.71 0.5,5.82 -1.57,7.89 l -26.95,26.94 c -2.82,2.83 -7.4,2.83 -10.23,0 -2.82,-2.83 -2.82,-7.4 0,-10.23 l 14.6,-14.59 h -11.16 c -4,0 -7.24,-3.24 -7.24,-7.24 0,-3.99 3.24,-7.23 7.24,-7.23"
       style="fill:#ffffff;fill-opacity:1;fill-rule:nonzero;stroke:none;stroke-width:0.1"
       id="path180" /><path
       d="m 1662.61,3163.78 12.28,12.27 c 2.82,2.83 2.82,7.41 0,10.23 -2.83,2.83 -7.41,2.83 -10.23,0 l -12.28,-12.27 -12.27,12.27 c -2.83,2.83 -7.41,2.83 -10.23,0 -2.83,-2.82 -2.83,-7.4 0,-10.23 l 12.27,-12.27 -12.27,-12.28 c -2.83,-2.82 -2.83,-7.41 0,-10.23 1.41,-1.41 3.26,-2.12 5.11,-2.12 1.85,0 3.7,0.71 5.12,2.12 l 12.27,12.27 12.28,-12.27 c 1.41,-1.41 3.26,-2.12 5.11,-2.12 1.85,0 3.71,0.71 5.12,2.12 2.82,2.82 2.82,7.41 0,10.23 l -12.28,12.28"
       style="fill:#ffffff;fill-opacity:1;fill-rule:nonzero;stroke:none;stroke-width:0.1"
       id="path182" /><path
       d="m 2108.76,3239.1 c 0,12.38 -10.03,22.42 -22.41,22.42 -12.39,0 -22.42,-10.04 -22.42,-22.42 0,-12.38 10.03,-22.42 22.42,-22.42 12.38,0 22.41,10.04 22.41,22.42"
       style="fill:#ffffff;fill-opacity:1;fill-rule:nonzero;stroke:none;stroke-width:0.1"
       id="path184" /><path
       d="m 2188.55,3239.1 c 0,12.38 -10.04,22.42 -22.42,22.42 -12.38,0 -22.42,-10.04 -22.42,-22.42 0,-12.38 10.04,-22.42 22.42,-22.42 12.38,0 22.42,10.04 22.42,22.42"
       style="fill:#ffffff;fill-opacity:1;fill-rule:nonzero;stroke:none;stroke-width:0.1"
       id="path186" /><path
       d="m 2136.47,3154.91 12.27,12.27 c 2.83,2.83 2.83,7.41 0,10.23 -2.82,2.83 -7.4,2.83 -10.23,0 l -12.27,-12.27 -12.28,12.27 c -2.82,2.83 -7.4,2.83 -10.23,0 -2.82,-2.82 -2.82,-7.4 0,-10.23 l 12.28,-12.27 -12.28,-12.28 c -2.82,-2.83 -2.82,-7.41 0,-10.23 1.41,-1.41 3.26,-2.12 5.12,-2.12 1.85,0 3.7,0.71 5.11,2.12 l 12.28,12.28 12.27,-12.28 c 1.42,-1.41 3.27,-2.12 5.12,-2.12 1.85,0 3.7,0.71 5.11,2.12 2.83,2.82 2.83,7.4 0,10.23 l -12.27,12.28"
       style="fill:#ffffff;fill-opacity:1;fill-rule:nonzero;stroke:none;stroke-width:0.1"
       id="path188" /><path
       d="m 2325.89,2669.32 c 0,12.38 -10.03,22.42 -22.42,22.42 -12.38,0 -22.41,-10.04 -22.41,-22.42 0,-12.38 10.03,-22.42 22.41,-22.42 12.39,0 22.42,10.04 22.42,22.42"
       style="fill:#ffffff;fill-opacity:1;fill-rule:nonzero;stroke:none;stroke-width:0.1"
       id="path190" /><path
       d="m 2405.68,2669.32 c 0,12.38 -10.04,22.42 -22.42,22.42 -12.38,0 -22.42,-10.04 -22.42,-22.42 0,-12.38 10.04,-22.42 22.42,-22.42 12.38,0 22.42,10.04 22.42,22.42"
       style="fill:#ffffff;fill-opacity:1;fill-rule:nonzero;stroke:none;stroke-width:0.1"
       id="path192" /><path
       d="m 2386.63,2587.17 c 0,-19.02 -19.37,-34.45 -43.26,-34.45 -23.9,0 -43.27,15.43 -43.27,34.45 0,19.03 19.37,34.45 43.27,34.45 23.89,0 43.26,-15.42 43.26,-34.45"
       style="fill:#ffffff;fill-opacity:1;fill-rule:nonzero;stroke:none;stroke-width:0.1"
       id="path194" /><path
       d="m 1677.17,2193.24 c 0,12.38 -10.03,22.42 -22.41,22.42 -12.39,0 -22.42,-10.04 -22.42,-22.42 0,-12.38 10.03,-22.41 22.42,-22.41 12.38,0 22.41,10.03 22.41,22.41"
       style="fill:#ffffff;fill-opacity:1;fill-rule:nonzero;stroke:none;stroke-width:0.1"
       id="path196" /><path
       d="m 1756.96,2193.24 c 0,12.38 -10.04,22.42 -22.42,22.42 -12.38,0 -22.42,-10.04 -22.42,-22.42 0,-12.38 10.04,-22.41 22.42,-22.41 12.38,0 22.42,10.03 22.42,22.41"
       style="fill:#ffffff;fill-opacity:1;fill-rule:nonzero;stroke:none;stroke-width:0.1"
       id="path198" /><path
       d="m 1737.91,2111.1 c 0,-19.03 -19.37,-34.45 -43.26,-34.45 -23.9,0 -43.27,15.42 -43.27,34.45 0,19.02 19.37,34.44 43.27,34.44 23.89,0 43.26,-15.42 43.26,-34.44"
       style="fill:#ffffff;fill-opacity:1;fill-rule:nonzero;stroke:none;stroke-width:0.1"
       id="path200" /><path
       d="m 2702.93,2425.44 v 20.52 c 0,1.33 1.08,2.41 2.41,2.41 1.34,0 2.42,-1.08 2.42,-2.41 v -20.52 c 0,-1.33 -1.08,-2.41 -2.42,-2.41 -1.33,0 -2.41,1.08 -2.41,2.41"
       style="fill:#ffffff;fill-opacity:1;fill-rule:nonzero;stroke:none;stroke-width:0.1"
       id="path202" /><path
       d="m 2784.44,2547.3 h -46.75 c -4.78,0 -9.08,2.88 -10.91,7.29 -1.83,4.42 -0.82,9.5 2.56,12.88 l 43.99,43.99 c 4.62,4.62 12.1,4.62 16.71,0 4.61,-4.61 4.61,-12.09 0,-16.7 l -23.83,-23.83 h 18.23 c 6.52,0 11.81,-5.29 11.81,-11.82 0,-6.52 -5.29,-11.81 -11.81,-11.81"
       style="fill:#ffffff;fill-opacity:1;fill-rule:nonzero;stroke:none;stroke-width:0.1"
       id="path204" /><path
       d="m 2626.25,2547.3 h 46.74 c 4.78,0 9.09,2.88 10.92,7.29 1.83,4.42 0.82,9.5 -2.56,12.88 l -44,43.99 c -4.61,4.62 -12.09,4.62 -16.71,0 -4.61,-4.61 -4.61,-12.09 0,-16.7 l 23.83,-23.83 h -18.22 c -6.53,0 -11.82,-5.29 -11.82,-11.82 0,-6.52 5.29,-11.81 11.82,-11.81"
       style="fill:#ffffff;fill-opacity:1;fill-rule:nonzero;stroke:none;stroke-width:0.1"
       id="path206" /><path
       d="m 2705.34,2498.71 c 50.4,0 91.4,-41 91.4,-91.4 0,-8.15 -6.61,-14.76 -14.76,-14.76 h -153.27 c -8.16,0 -14.77,6.61 -14.77,14.76 0,50.4 41,91.4 91.4,91.4"
       style="fill:#ffffff;fill-opacity:1;fill-rule:nonzero;stroke:none;stroke-width:0.1"
       id="path208" /><path
       d="m 2044.32,2126.54 c 0,20.22 -16.39,36.61 -36.6,36.61 -20.22,0 -36.61,-16.39 -36.61,-36.61 0,-20.22 16.39,-36.61 36.61,-36.61 20.21,0 36.6,16.39 36.6,36.61"
       style="fill:#ffffff;fill-opacity:1;fill-rule:nonzero;stroke:none;stroke-width:0.1"
       id="path210" /><path
       d="m 2174.61,2126.54 c 0,20.22 -16.39,36.61 -36.61,36.61 -20.22,0 -36.61,-16.39 -36.61,-36.61 0,-20.22 16.39,-36.61 36.61,-36.61 20.22,0 36.61,16.39 36.61,36.61"
       style="fill:#ffffff;fill-opacity:1;fill-rule:nonzero;stroke:none;stroke-width:0.1"
       id="path212" /><path
       d="m 2072.86,2049.3 c 50.4,0 91.4,-41.01 91.4,-91.41 0,-8.15 -6.61,-14.76 -14.77,-14.76 h -153.27 c -8.15,0 -14.76,6.61 -14.76,14.76 0,50.4 41,91.41 91.4,91.41"
       style="fill:#ffffff;fill-opacity:1;fill-rule:nonzero;stroke:none;stroke-width:0.1"
       id="path214" /><path
       d="m 1273.13,2358.96 14.63,14.63 c 3.37,3.37 3.37,8.83 0,12.19 -3.36,3.37 -8.82,3.37 -12.19,0 l -14.63,-14.63 -14.63,14.63 c -3.36,3.37 -8.82,3.37 -12.19,0 -3.36,-3.36 -3.36,-8.82 0,-12.19 l 14.63,-14.63 -14.63,-14.63 c -3.36,-3.36 -3.36,-8.82 0,-12.19 1.68,-1.68 3.89,-2.52 6.1,-2.52 2.2,0 4.41,0.84 6.09,2.52 l 14.63,14.63 14.63,-14.63 c 1.68,-1.68 3.89,-2.52 6.1,-2.52 2.2,0 4.41,0.84 6.09,2.52 3.37,3.37 3.37,8.83 0,12.19 l -14.63,14.63"
       style="fill:#ffffff;fill-opacity:1;fill-rule:nonzero;stroke:none;stroke-width:0.1"
       id="path216" /><path
       d="m 1384.91,2358.96 14.63,14.63 c 3.37,3.37 3.37,8.83 0,12.19 -3.37,3.37 -8.82,3.37 -12.19,0 l -14.63,-14.63 -14.63,14.63 c -3.37,3.37 -8.82,3.37 -12.19,0 -3.37,-3.36 -3.37,-8.82 0,-12.19 l 14.63,-14.63 -14.63,-14.63 c -3.37,-3.36 -3.37,-8.82 0,-12.19 1.68,-1.68 3.89,-2.52 6.1,-2.52 2.2,0 4.41,0.84 6.09,2.52 l 14.63,14.63 14.63,-14.63 c 1.68,-1.68 3.89,-2.52 6.09,-2.52 2.21,0 4.42,0.84 6.1,2.52 3.37,3.37 3.37,8.83 0,12.19 l -14.63,14.63"
       style="fill:#ffffff;fill-opacity:1;fill-rule:nonzero;stroke:none;stroke-width:0.1"
       id="path218" /><path
       d="m 1316.83,2292.12 c 50.4,0 91.4,-41 91.4,-91.4 0,-8.16 -6.61,-14.77 -14.76,-14.77 -8.16,0 -14.77,6.61 -14.77,14.77 0,34.11 -27.75,61.87 -61.87,61.87 -34.11,0 -61.87,-27.76 -61.87,-61.87 0,-8.16 -6.61,-14.77 -14.76,-14.77 -8.16,0 -14.77,6.61 -14.77,14.77 0,50.4 41,91.4 91.4,91.4"
       style="fill:#ffffff;fill-opacity:1;fill-rule:nonzero;stroke:none;stroke-width:0.1"
       id="path220" /><path
       d="m 3131.11,3106.68 8.96,8.96 c 2.06,2.06 2.06,5.4 0,7.47 -2.06,2.06 -5.4,2.06 -7.46,0 l -8.96,-8.96 -8.96,8.96 c -2.06,2.06 -5.41,2.06 -7.47,0 -2.06,-2.07 -2.06,-5.41 0,-7.47 l 8.96,-8.96 -8.96,-8.96 c -2.06,-2.06 -2.06,-5.4 0,-7.46 1.03,-1.03 2.39,-1.55 3.74,-1.55 1.35,0 2.7,0.52 3.73,1.55 l 8.96,8.96 8.96,-8.96 c 1.03,-1.03 2.38,-1.55 3.73,-1.55 1.35,0 2.7,0.52 3.73,1.55 2.06,2.06 2.06,5.4 0,7.46 l -8.96,8.96"
       style="fill:#ffffff;fill-opacity:1;fill-rule:nonzero;stroke:none;stroke-width:0.1"
       id="path222" /><path
       d="m 3199.56,3106.68 8.96,8.96 c 2.06,2.06 2.06,5.4 0,7.47 -2.06,2.06 -5.4,2.06 -7.46,0 l -8.96,-8.96 -8.96,8.96 c -2.06,2.06 -5.4,2.06 -7.47,0 -2.06,-2.07 -2.06,-5.41 0.01,-7.47 l 8.95,-8.96 -8.95,-8.96 c -2.07,-2.06 -2.07,-5.4 -0.01,-7.46 1.04,-1.03 2.39,-1.55 3.74,-1.55 1.35,0 2.7,0.52 3.73,1.55 l 8.96,8.96 8.96,-8.96 c 1.03,-1.03 2.38,-1.55 3.73,-1.55 1.35,0 2.7,0.52 3.73,1.55 2.06,2.06 2.06,5.4 0,7.46 l -8.96,8.96"
       style="fill:#ffffff;fill-opacity:1;fill-rule:nonzero;stroke:none;stroke-width:0.1"
       id="path224" /><path
       d="m 3159.46,3070.48 c 30.86,0 55.97,-25.11 55.97,-55.97 0,-5 -4.05,-9.05 -9.04,-9.05 h -93.86 c -5,0 -9.04,4.05 -9.04,9.05 0,30.86 25.11,55.97 55.97,55.97"
       style="fill:#ffffff;fill-opacity:1;fill-rule:nonzero;stroke:none;stroke-width:0.1"
       id="path226" /><path
       d="m 759.902,2251.89 8.957,8.96 c 2.063,2.06 2.063,5.4 10e-4,7.46 -2.062,2.06 -5.404,2.06 -7.466,0 l -8.959,-8.96 -8.957,8.96 c -2.062,2.06 -5.405,2.06 -7.466,0 -2.061,-2.06 -2.061,-5.4 0,-7.46 l 8.958,-8.96 -8.958,-8.96 c -2.061,-2.06 -2.061,-5.4 0,-7.47 1.031,-1.03 2.382,-1.54 3.732,-1.54 1.351,0 2.703,0.51 3.734,1.54 l 8.957,8.96 8.959,-8.96 c 1.031,-1.03 2.382,-1.54 3.733,-1.54 1.352,0 2.702,0.51 3.733,1.54 2.062,2.07 2.062,5.41 -10e-4,7.47 l -8.957,8.96"
       style="fill:#ffffff;fill-opacity:1;fill-rule:nonzero;stroke:none;stroke-width:0.1"
       id="path228" /><path
       d="m 828.352,2251.89 8.959,8.96 c 2.061,2.06 2.061,5.4 0,7.46 -2.062,2.06 -5.404,2.06 -7.466,0 l -8.958,-8.96 -8.958,8.96 c -2.063,2.06 -5.405,2.06 -7.467,0 -2.061,-2.06 -2.061,-5.4 10e-4,-7.46 l 8.957,-8.96 -8.957,-8.96 c -2.062,-2.06 -2.062,-5.4 -10e-4,-7.47 1.031,-1.03 2.382,-1.54 3.734,-1.54 1.351,0 2.701,0.51 3.733,1.54 l 8.958,8.96 8.958,-8.96 c 1.03,-1.03 2.382,-1.54 3.733,-1.54 1.351,0 2.702,0.51 3.733,1.54 2.061,2.07 2.061,5.41 0,7.47 l -8.959,8.96"
       style="fill:#ffffff;fill-opacity:1;fill-rule:nonzero;stroke:none;stroke-width:0.1"
       id="path230" /><path
       d="m 833.222,2172.54 h -92.276 c -5.993,0 -10.852,4.86 -10.852,10.85 0,6 4.859,10.85 10.852,10.85 h 92.276 c 5.994,0 10.852,-4.85 10.852,-10.85 0,-5.99 -4.858,-10.85 -10.852,-10.85"
       style="fill:#ffffff;fill-opacity:1;fill-rule:nonzero;stroke:none;stroke-width:0.1"
       id="path232" /><path
       d="m 2591.24,2983.84 8.96,8.95 c 2.06,2.07 2.06,5.41 0,7.47 -2.06,2.06 -5.41,2.06 -7.47,0 l -8.95,-8.96 -8.96,8.96 c -2.06,2.06 -5.41,2.06 -7.47,0 -2.06,-2.06 -2.06,-5.4 0,-7.47 l 8.96,-8.95 -8.96,-8.96 c -2.06,-2.06 -2.06,-5.41 0,-7.47 1.03,-1.03 2.38,-1.54 3.73,-1.54 1.36,0 2.71,0.51 3.74,1.54 l 8.96,8.96 8.95,-8.96 c 1.03,-1.03 2.39,-1.54 3.74,-1.54 1.35,0 2.7,0.51 3.73,1.54 2.06,2.06 2.06,5.41 0,7.47 l -8.96,8.96"
       style="fill:#ffffff;fill-opacity:1;fill-rule:nonzero;stroke:none;stroke-width:0.1"
       id="path234" /><path
       d="m 2659.69,2983.84 8.96,8.95 c 2.06,2.07 2.06,5.41 0,7.47 -2.06,2.06 -5.4,2.06 -7.47,0 l -8.95,-8.96 -8.96,8.96 c -2.06,2.06 -5.41,2.06 -7.47,0 -2.06,-2.06 -2.06,-5.4 0,-7.47 l 8.96,-8.95 -8.96,-8.96 c -2.06,-2.06 -2.06,-5.41 0,-7.47 1.03,-1.03 2.38,-1.54 3.73,-1.54 1.36,0 2.71,0.51 3.74,1.54 l 8.96,8.96 8.95,-8.96 c 1.04,-1.03 2.39,-1.54 3.74,-1.54 1.35,0 2.7,0.51 3.73,1.54 2.06,2.06 2.06,5.41 0,7.47 l -8.96,8.96"
       style="fill:#ffffff;fill-opacity:1;fill-rule:nonzero;stroke:none;stroke-width:0.1"
       id="path236" /><path
       d="m 2563.79,2897.36 c -1.64,0 -3.27,0.77 -4.43,2.28 -2.12,2.76 -1.85,6.93 0.6,9.31 l 13.55,13.2 c 2.2,2.14 5.46,2.14 7.66,0 l 9.72,-9.48 9.73,9.48 c 2.2,2.14 5.46,2.14 7.65,0 l 9.73,-9.48 9.73,9.48 c 2.19,2.14 5.45,2.14 7.65,0 l 9.73,-9.48 9.72,9.48 c 2.2,2.14 5.46,2.14 7.66,0 l 13.55,-13.2 c 2.45,-2.38 2.72,-6.55 0.6,-9.31 -2.11,-2.76 -5.81,-3.06 -8.26,-0.68 l -9.72,9.47 -9.73,-9.47 c -2.19,-2.14 -5.45,-2.14 -7.65,0 l -9.73,9.47 -9.72,-9.47 c -2.2,-2.14 -5.46,-2.14 -7.66,0 l -9.72,9.47 -9.73,-9.47 c -2.2,-2.14 -5.46,-2.14 -7.65,0 l -9.73,9.47 -9.73,-9.47 c -1.1,-1.08 -2.46,-1.6 -3.82,-1.6"
       style="fill:#ffffff;fill-opacity:1;fill-rule:nonzero;stroke:none;stroke-width:0.1"
       id="path238" /><path
       d="m 1074.38,2716.97 h -46.75 c -4.78,0 -9.09,2.87 -10.91,7.29 -1.83,4.41 -0.82,9.49 2.56,12.87 l 43.99,44 c 4.62,4.61 12.1,4.61 16.71,0 4.61,-4.62 4.61,-12.09 0,-16.71 l -23.83,-23.83 h 18.23 c 6.52,0 11.81,-5.29 11.81,-11.81 0,-6.53 -5.29,-11.81 -11.81,-11.81"
       style="fill:#ffffff;fill-opacity:1;fill-rule:nonzero;stroke:none;stroke-width:0.1"
       id="path240" /><path
       d="m 916.185,2716.97 h 46.746 c 4.778,0 9.085,2.87 10.914,7.29 1.828,4.41 0.818,9.49 -2.56,12.87 l -43.997,44 c -4.613,4.61 -12.094,4.61 -16.707,0 -4.612,-4.62 -4.612,-12.09 0,-16.71 l 23.831,-23.83 h -18.227 c -6.524,0 -11.813,-5.29 -11.813,-11.81 0,-6.53 5.289,-11.81 11.813,-11.81"
       style="fill:#ffffff;fill-opacity:1;fill-rule:nonzero;stroke:none;stroke-width:0.1"
       id="path242" /><path
       d="m 907.194,2603.13 c -2.683,0 -5.349,1.27 -7.239,3.73 -3.452,4.51 -3.011,11.31 0.984,15.2 l 22.131,21.56 c 3.59,3.49 8.91,3.49 12.5,0 l 15.883,-15.47 15.881,15.47 c 3.59,3.49 8.911,3.49 12.5,0 l 15.882,-15.47 15.884,15.47 c 3.59,3.49 8.91,3.49 12.5,0 l 15.88,-15.47 15.88,15.47 c 3.59,3.49 8.91,3.49 12.5,0 l 22.13,-21.56 c 4,-3.89 4.44,-10.69 0.99,-15.2 -3.45,-4.5 -9.49,-5 -13.49,-1.11 l -15.88,15.47 -15.88,-15.47 c -3.59,-3.49 -8.91,-3.49 -12.5,0 l -15.88,15.47 -15.88,-15.47 c -3.594,-3.49 -8.914,-3.49 -12.503,0 l -15.883,15.47 -15.881,-15.47 c -3.59,-3.49 -8.91,-3.49 -12.5,0 l -15.883,15.47 -15.881,-15.47 c -1.807,-1.76 -4.031,-2.62 -6.245,-2.62"
       style="fill:#ffffff;fill-opacity:1;fill-rule:nonzero;stroke:none;stroke-width:0.1"
       id="path244" /><path
       d="m 2683.66,1984.78 c 0,20.22 -16.39,36.61 -36.6,36.61 -20.22,0 -36.61,-16.39 -36.61,-36.61 0,-20.22 16.39,-36.61 36.61,-36.61 20.21,0 36.6,16.39 36.6,36.61"
       style="fill:#ffffff;fill-opacity:1;fill-rule:nonzero;stroke:none;stroke-width:0.1"
       id="path246" /><path
       d="m 2713.42,1800.89 c -50.4,0 -91.4,41 -91.4,91.4 0,8.16 6.61,14.77 14.77,14.77 8.15,0 14.77,-6.61 14.77,-14.77 0,-34.11 27.75,-61.87 61.86,-61.87 34.12,0 61.87,27.76 61.87,61.87 0,8.16 6.61,14.77 14.77,14.77 8.15,0 14.77,-6.61 14.77,-14.77 0,-50.4 -41.01,-91.4 -91.41,-91.4"
       style="fill:#ffffff;fill-opacity:1;fill-rule:nonzero;stroke:none;stroke-width:0.1"
       id="path248" /><path
       d="m 2794.36,1955.1 h -46.75 c -4.78,0 -9.09,2.88 -10.91,7.29 -1.83,4.41 -0.82,9.5 2.56,12.87 l 43.99,44 c 4.62,4.61 12.1,4.61 16.71,0 4.61,-4.61 4.61,-12.09 0,-16.71 l -23.83,-23.83 h 18.23 c 6.52,0 11.81,-5.29 11.81,-11.81 0,-6.52 -5.29,-11.81 -11.81,-11.81"
       style="fill:#ffffff;fill-opacity:1;fill-rule:nonzero;stroke:none;stroke-width:0.1"
       id="path250" /><path
       d="m 3045,2367.57 c 0,12.38 -10.04,22.42 -22.42,22.42 -12.38,0 -22.41,-10.04 -22.41,-22.42 0,-12.38 10.03,-22.42 22.41,-22.42 12.38,0 22.42,10.04 22.42,22.42"
       style="fill:#ffffff;fill-opacity:1;fill-rule:nonzero;stroke:none;stroke-width:0.1"
       id="path252" /><path
       d="m 3112.79,2349.39 h -28.63 c -2.93,0 -5.56,1.76 -6.68,4.47 -1.12,2.7 -0.5,5.81 1.57,7.88 l 26.94,26.94 c 2.82,2.83 7.4,2.83 10.23,0 2.82,-2.82 2.82,-7.4 0,-10.23 l -14.59,-14.59 h 11.16 c 3.99,0 7.23,-3.24 7.23,-7.23 0,-4 -3.24,-7.24 -7.23,-7.24"
       style="fill:#ffffff;fill-opacity:1;fill-rule:nonzero;stroke:none;stroke-width:0.1"
       id="path254" /><path
       d="m 3060.09,2257.13 c -30.86,0 -55.97,25.11 -55.97,55.97 0,5 4.05,9.05 9.04,9.05 h 93.86 c 5,0 9.05,-4.05 9.05,-9.05 0,-30.86 -25.11,-55.97 -55.98,-55.97"
       style="fill:#ffffff;fill-opacity:1;fill-rule:nonzero;stroke:none;stroke-width:0.1"
       id="path256" /><path
       d="m 1233.42,3345.54 c 0,12.39 -10.04,22.42 -22.42,22.42 -12.38,0 -22.41,-10.03 -22.41,-22.42 0,-12.38 10.03,-22.41 22.41,-22.41 12.38,0 22.42,10.03 22.42,22.41"
       style="fill:#ffffff;fill-opacity:1;fill-rule:nonzero;stroke:none;stroke-width:0.1"
       id="path258" /><path
       d="m 1301.21,3327.37 h -28.63 c -2.93,0 -5.56,1.76 -6.68,4.46 -1.12,2.71 -0.5,5.82 1.57,7.89 l 26.94,26.94 c 2.82,2.83 7.4,2.83 10.23,0 2.82,-2.82 2.82,-7.41 0,-10.23 l -14.6,-14.59 h 11.17 c 3.99,0 7.23,-3.24 7.23,-7.24 0,-3.99 -3.24,-7.23 -7.23,-7.23"
       style="fill:#ffffff;fill-opacity:1;fill-rule:nonzero;stroke:none;stroke-width:0.1"
       id="path260" /><path
       d="m 1248.51,3235.11 c -30.86,0 -55.97,25.11 -55.97,55.97 0,4.99 4.05,9.04 9.04,9.04 h 93.86 c 5,0 9.05,-4.05 9.05,-9.04 0,-30.86 -25.11,-55.97 -55.98,-55.97"
       style="fill:#ffffff;fill-opacity:1;fill-rule:nonzero;stroke:none;stroke-width:0.1"
       id="path262" /><path
       d="m 1337.31,1965.13 c -94.9,0 -172.11,-77.21 -172.11,-172.11 0,-94.9 77.21,-172.11 172.11,-172.11 94.91,0 172.11,77.21 172.11,172.11 0,94.9 -77.2,172.11 -172.11,172.11 z m 0,-363.22 c -105.37,0 -191.11,85.73 -191.11,191.11 0,105.38 85.74,191.11 191.11,191.11 105.38,0 191.11,-85.73 191.11,-191.11 0,-105.38 -85.73,-191.11 -191.11,-191.11"
       style="fill:#ffffff;fill-opacity:1;fill-rule:nonzero;stroke:none;stroke-width:0.1"
       id="path266" /><path
       d="m 1307.96,1852.27 c 0,20.22 -16.39,36.61 -36.61,36.61 -20.21,0 -36.6,-16.39 -36.6,-36.61 0,-20.22 16.39,-36.61 36.6,-36.61 20.22,0 36.61,16.39 36.61,36.61"
       style="fill:#ffffff;fill-opacity:1;fill-rule:nonzero;stroke:none;stroke-width:0.1"
       id="path268" /><path
       d="m 1438.24,1852.27 c 0,20.22 -16.39,36.61 -36.6,36.61 -20.22,0 -36.61,-16.39 -36.61,-36.61 0,-20.22 16.39,-36.61 36.61,-36.61 20.21,0 36.6,16.39 36.6,36.61"
       style="fill:#ffffff;fill-opacity:1;fill-rule:nonzero;stroke:none;stroke-width:0.1"
       id="path270" /><path
       d="m 1337.72,1668.38 c -50.4,0 -91.4,41 -91.4,91.4 0,8.16 6.61,14.77 14.77,14.77 h 153.27 c 8.15,0 14.76,-6.61 14.76,-14.77 0,-50.4 -41,-91.4 -91.4,-91.4"
       style="fill:#ffffff;fill-opacity:1;fill-rule:nonzero;stroke:none;stroke-width:0.1"
       id="path272" /></g></svg>
