<?xml version="1.0" encoding="UTF-8" standalone="no"?>
<!-- Created with Inkscape (http://www.inkscape.org/) -->

<svg
   width="147.13672"
   height="45.781246"
   viewBox="0 0 147.13672 45.781247"
   version="1.1"
   id="svg5"
   inkscape:version="1.2.1 (9c6d41e410, 2022-07-14)"
   sodipodi:docname="adoolting_full.svg"
   xmlns:inkscape="http://www.inkscape.org/namespaces/inkscape"
   xmlns:sodipodi="http://sodipodi.sourceforge.net/DTD/sodipodi-0.dtd"
   xmlns="http://www.w3.org/2000/svg"
   xmlns:svg="http://www.w3.org/2000/svg">
  <sodipodi:namedview
     id="namedview7"
     pagecolor="#ffffff"
     bordercolor="#666666"
     borderopacity="1.0"
     inkscape:showpageshadow="false"
     inkscape:pageopacity="0.0"
     inkscape:pagecheckerboard="true"
     inkscape:deskcolor="#d1d1d1"
     inkscape:document-units="px"
     showgrid="false"
     showguides="false"
     inkscape:zoom="3.534407"
     inkscape:cx="91.245858"
     inkscape:cy="-9.3367854"
     inkscape:window-width="1350"
     inkscape:window-height="1205"
     inkscape:window-x="4787"
     inkscape:window-y="30"
     inkscape:window-maximized="0"
     inkscape:current-layer="layer1">
    <sodipodi:guide
       position="20.144531,8.6913994"
       orientation="1,0"
       id="guide388"
       inkscape:locked="false" />
    <sodipodi:guide
       position="15.027343,8.6913994"
       orientation="1,0"
       id="guide451"
       inkscape:locked="false" />
    <sodipodi:guide
       position="7.1367181,8.6913994"
       orientation="-0.92718385,0.37460659"
       id="guide453"
       inkscape:locked="false"
       inkscape:label=""
       inkscape:color="rgb(0,134,229)" />
    <sodipodi:guide
       position="2,8.6913994"
       orientation="-0.92718385,0.37460659"
       id="guide455"
       inkscape:locked="false"
       inkscape:label=""
       inkscape:color="rgb(0,134,229)" />
    <sodipodi:guide
       position="37.273436,44.21878"
       orientation="0,-1"
       id="guide459"
       inkscape:locked="false" />
  </sodipodi:namedview>
  <defs
     id="defs2" />
  <g
     inkscape:label="Layer 1"
     inkscape:groupmode="layer"
     id="layer1"
     transform="translate(-25.431641,-73.745483)">
    <g
       aria-label="Adoolting"
       id="text113"
       style="font-size:40px;line-height:1.25;font-family:'Fjalla One';-inkscape-font-specification:'Fjalla One'">
      <path
         d="m 38.795392,77.758885 h 4.78078 v 33.076445 h -5.117188 v -5.97657 h -5.455587 l -2.435038,5.97657 h -5.136718 z m -0.336408,23.291285 v -9.744822 0 l -3.937164,9.744822 z"
         id="path320"
         sodipodi:nodetypes="cccccccccccccc" />
      <path
         d="m 53.642578,111.14783 q -0.449219,0 -1.054687,-0.0977 -0.605469,-0.0781 -1.25,-0.39062 -0.644532,-0.3125 -1.269532,-0.9375 -0.625,-0.625 -1.113281,-1.69922 -0.488281,-1.09375 -0.800781,-2.69532 -0.292969,-1.60156 -0.292969,-3.88671 V 92.9056 q 0,-2.265625 0.3125,-3.828125 0.332031,-1.5625 0.859375,-2.578125 0.527344,-1.035157 1.171875,-1.601563 0.664063,-0.585937 1.308594,-0.859375 0.664062,-0.273437 1.25,-0.332031 0.605469,-0.05859 0.996094,-0.05859 0.722656,0 1.367187,0.195313 0.644531,0.195312 1.171875,0.527343 0.527344,0.3125 0.9375,0.722657 0.410156,0.390625 0.683594,0.800781 l 0.01953,-0.01953 -0.15625,-3.398438 v -7.167969 h 4.921875 V 110.8353 h -3.847656 l -0.429688,-2.5 q -0.332031,0.52733 -0.761718,1.03515 -0.429688,0.50782 -1.015625,0.91797 -0.585938,0.39063 -1.328125,0.625 -0.742188,0.23438 -1.679688,0.23438 z m 1.679688,-3.82813 q 0.488281,0 0.859375,-0.15625 0.390625,-0.17578 0.683593,-0.42969 0.3125,-0.27343 0.527344,-0.625 0.234375,-0.35156 0.390625,-0.72265 V 89.214233 q -0.371094,-0.820312 -0.996094,-1.386718 -0.605468,-0.585938 -1.484375,-0.585938 -0.546875,0 -0.996093,0.195313 -0.449219,0.195312 -0.78125,0.742187 -0.332032,0.527344 -0.527344,1.484375 -0.175781,0.9375 -0.175781,2.441406 v 10.312502 q 0,1.5039 0.175781,2.46094 0.195312,0.95703 0.527344,1.5039 0.332031,0.52735 0.78125,0.74219 0.46875,0.19531 1.015625,0.19531 z"
         id="path322" />
      <path
         d="m 74.560547,111.1283 q -0.859375,0 -1.757813,-0.13672 -0.878906,-0.13672 -1.71875,-0.56641 -0.820312,-0.42969 -1.5625,-1.23047 -0.722656,-0.80078 -1.269531,-2.10937 -0.546875,-1.3086 -0.859375,-3.22266 -0.3125,-1.91406 -0.3125,-4.570312 v -4.21875 q 0,-2.617187 0.3125,-4.472656 0.332031,-1.875 0.878906,-3.144531 0.566407,-1.269531 1.308594,-2.011719 0.742188,-0.761719 1.5625,-1.152344 0.839844,-0.410156 1.71875,-0.527343 0.878906,-0.136719 1.71875,-0.136719 0.800781,0 1.660156,0.117187 0.859375,0.117188 1.679688,0.507813 0.820312,0.371094 1.542969,1.132812 0.742187,0.742188 1.289062,2.011719 0.566406,1.269531 0.878906,3.164063 0.332032,1.875 0.332032,4.511718 v 4.21875 q 0,2.617192 -0.332032,4.511722 -0.332031,1.89453 -0.898437,3.20312 -0.566406,1.3086 -1.308594,2.12891 -0.742187,0.80078 -1.5625,1.25 -0.820312,0.44922 -1.679687,0.58594 -0.839844,0.15625 -1.621094,0.15625 z m 0.03906,-3.8086 q 0.664063,0 1.113282,-0.33203 0.46875,-0.35156 0.742187,-1.13281 0.292969,-0.78125 0.410156,-2.05078 0.136719,-1.28907 0.136719,-3.1836 v -6.62109 q 0,-1.894532 -0.136719,-3.183594 -0.117187,-1.289063 -0.410156,-2.070313 -0.273437,-0.800781 -0.742187,-1.152343 -0.449219,-0.351563 -1.113282,-0.351563 -0.703125,0 -1.191406,0.351563 -0.46875,0.351562 -0.78125,1.152343 -0.3125,0.78125 -0.449219,2.070313 -0.136718,1.289062 -0.136718,3.183594 v 6.62109 q 0,1.89453 0.136718,3.1836 0.136719,1.26953 0.449219,2.05078 0.3125,0.78125 0.78125,1.13281 0.488281,0.33203 1.191406,0.33203 z"
         id="path324" />
      <path
         d="m 93.115234,111.1283 q -0.859375,0 -1.757812,-0.13672 -0.878906,-0.13672 -1.71875,-0.56641 -0.820313,-0.42969 -1.5625,-1.23047 -0.722656,-0.80078 -1.269531,-2.10937 -0.546875,-1.3086 -0.859375,-3.22266 -0.3125,-1.91406 -0.3125,-4.570312 v -4.21875 q 0,-2.617187 0.3125,-4.472656 0.332031,-1.875 0.878906,-3.144531 0.566406,-1.269531 1.308594,-2.011719 0.742187,-0.761719 1.5625,-1.152344 0.839843,-0.410156 1.71875,-0.527343 0.878906,-0.136719 1.71875,-0.136719 0.800781,0 1.660156,0.117187 0.859375,0.117188 1.679687,0.507813 0.820313,0.371094 1.542969,1.132812 0.742188,0.742188 1.289063,2.011719 0.566406,1.269531 0.878909,3.164063 0.33203,1.875 0.33203,4.511718 v 4.21875 q 0,2.617192 -0.33203,4.511722 -0.332034,1.89453 -0.898441,3.20312 -0.566406,1.3086 -1.308593,2.12891 -0.742188,0.80078 -1.5625,1.25 -0.820313,0.44922 -1.679688,0.58594 -0.839844,0.15625 -1.621094,0.15625 z m 0.03906,-3.8086 q 0.664062,0 1.113281,-0.33203 0.46875,-0.35156 0.742188,-1.13281 0.292968,-0.78125 0.410156,-2.05078 0.136719,-1.28907 0.136719,-3.1836 v -6.62109 q 0,-1.894532 -0.136719,-3.183594 -0.117188,-1.289063 -0.410156,-2.070313 -0.273438,-0.800781 -0.742188,-1.152343 -0.449219,-0.351563 -1.113281,-0.351563 -0.703125,0 -1.191406,0.351563 -0.46875,0.351562 -0.78125,1.152343 -0.3125,0.78125 -0.449219,2.070313 Q 90.5957,92.104858 90.5957,93.99939 v 6.62109 q 0,1.89453 0.136719,3.1836 0.136719,1.26953 0.449219,2.05078 0.3125,0.78125 0.78125,1.13281 0.488281,0.33203 1.191406,0.33203 z"
         id="path326" />
      <path
         d="m 104.9707,75.307983 h 4.94141 v 35.527347 h -4.94141 z"
         id="path328" />
      <path
         d="m 115.63477,87.456421 h -2.08985 v -3.515625 h 2.51953 l 0.9961,-6.972656 h 3.51562 v 6.972656 h 4.29688 v 3.515625 h -4.29688 V 104.5658 q 0,0.8789 0.15625,1.42578 0.17578,0.52734 0.46875,0.83984 0.29297,0.29297 0.6836,0.39063 0.39062,0.0977 0.82031,0.0977 0.72265,0 1.26953,-0.17578 0.56641,-0.17578 1.07422,-0.48828 v 2.73437 q -0.42969,0.52735 -0.9375,0.85938 -0.48828,0.33203 -1.01563,0.54687 -0.52734,0.19532 -1.07422,0.27344 -0.54687,0.0781 -1.07421,0.0781 -1.03516,0 -1.99219,-0.27344 -0.95703,-0.27344 -1.69922,-1.03516 -0.74219,-0.78125 -1.19141,-2.14843 -0.42968,-1.36719 -0.42968,-3.55469 z"
         id="path330" />
      <path
         d="m 130.88867,80.09314 q -1.36719,0 -2.16797,-0.820313 -0.78125,-0.820312 -0.78125,-2.402344 0,-0.878906 0.19532,-1.464843 0.21484,-0.605469 0.58593,-0.957032 0.39063,-0.371093 0.9375,-0.527343 0.54688,-0.175782 1.25,-0.175782 1.46485,0 2.22657,0.742188 0.76171,0.742187 0.76171,2.382812 0,1.523438 -0.78125,2.382813 -0.76171,0.839844 -2.22656,0.839844 z m -2.55859,3.847656 h 4.9414 v 26.894534 h -4.9414 z"
         id="path332" />
      <path
         d="m 138.42773,83.940796 h 3.8086 l 0.44922,2.871094 v 0.01953 q 0.58593,-0.917969 1.25,-1.523438 0.68359,-0.625 1.40625,-0.996093 0.72265,-0.371094 1.46484,-0.527344 0.76172,-0.15625 1.50391,-0.15625 2.36328,0 3.63281,1.660156 1.28906,1.640625 1.28906,4.941406 v 20.605473 h -4.9414 V 90.40564 q 0,-1.777344 -0.54688,-2.460938 -0.54687,-0.703125 -1.60156,-0.703125 -0.74219,0 -1.48438,0.488281 -0.72265,0.488282 -1.28906,1.347657 v 21.757815 h -4.94141 z"
         id="path334" />
      <path
         d="m 162.37305,112.67126 q 0,1.73829 0.64453,2.46094 0.64453,0.72266 1.99219,0.72266 0.54687,0 1.05468,-0.17578 0.50782,-0.15625 0.87891,-0.60547 0.39062,-0.42969 0.625,-1.21094 0.23437,-0.78125 0.23437,-2.01172 v -4.23828 q -0.66406,0.85938 -1.71875,1.48438 -1.03515,0.60546 -2.57812,0.60546 -0.44922,0 -1.05469,-0.0781 -0.60547,-0.0977 -1.25,-0.41016 -0.64453,-0.3125 -1.26953,-0.9375 -0.625,-0.64453 -1.11328,-1.71875 -0.48828,-1.07422 -0.80078,-2.67578 -0.29297,-1.62109 -0.29297,-3.906248 V 92.90564 q 0,-2.1875 0.29297,-3.710938 0.3125,-1.542969 0.80078,-2.578125 0.48828,-1.035156 1.11328,-1.621094 0.64453,-0.585937 1.28906,-0.878906 0.66407,-0.3125 1.28907,-0.390625 0.625,-0.07813 1.11328,-0.07813 0.97656,0 1.71875,0.253906 0.76172,0.253907 1.30859,0.683594 0.56641,0.410156 0.95703,0.9375 0.39063,0.527344 0.66406,1.054688 l 0.44922,-2.65625 h 3.84766 v 25.82032 q 0,2.24609 -0.42969,4.04297 -0.42969,1.8164 -1.34765,3.08593 -0.91797,1.28907 -2.34375,1.97266 -1.40625,0.68359 -3.37891,0.68359 -1.32813,0 -2.5,-0.23437 -1.17188,-0.23438 -2.05078,-0.83985 -0.87891,-0.58593 -1.38672,-1.62109 -0.50781,-1.01562 -0.50781,-2.59766 0,-0.27343 0.0586,-0.68359 0.0586,-0.41016 0.19531,-0.87891 z m 2.8125,-6.79687 q 0.48828,0 0.85937,-0.15625 0.39063,-0.17578 0.6836,-0.44922 0.3125,-0.27344 0.52734,-0.625 0.23437,-0.35156 0.39062,-0.72266 V 89.214233 q -0.37109,-0.820312 -0.99609,-1.386718 -0.60547,-0.585938 -1.48437,-0.585938 -0.54688,0 -0.9961,0.195313 -0.44922,0.195312 -0.78125,0.742187 -0.33203,0.527344 -0.52734,1.484375 -0.17578,0.9375 -0.17578,2.441406 v 8.847652 q 0,1.50391 0.17578,2.46094 0.19531,0.95703 0.52734,1.50391 0.33203,0.54687 0.78125,0.76172 0.46875,0.19531 1.01563,0.19531 z"
         id="path336" />
    </g>
  </g>
</svg>
